<?xml version="1.0" encoding="UTF-8" standalone="no"?>
<!-- Created with Inkscape (http://www.inkscape.org/) -->
<svg
   xmlns:svg="http://www.w3.org/2000/svg"
   xmlns="http://www.w3.org/2000/svg"
   version="1.0"
   width="930"
   height="960"
   id="svg2">
  <defs
     id="defs4" />
  <g
     transform="matrix(0.9960106,0,0,0.9986613,436.07646,-32.604198)"
     id="layer1">
    <path
       d="M -437.82311,32.647904 L -437.82311,993.93478 L 495.90189,993.93478 L 495.90191,32.647904 L -437.82311,32.647904 z"
       id="path2421"
       style="fill:#009140;fill-opacity:1;stroke:none" />
    <path
       d="M 181.75,230.375 C 102.88895,231.09692 32.618,308.93792 53.78125,411.9375 C 69.9141,490.45459 153.74936,592.55968 300,691.53125 C 446.25064,592.55968 530.0859,490.45459 546.21875,411.9375 C 567.382,308.93792 497.11105,231.09692 418.25,230.375 C 377.71967,229.75518 327.02148,251.12563 300,302.75 C 272.97852,251.12563 222.28033,229.75518 181.75,230.375 z"
       transform="translate(-285.21429,33.647896)"
       id="path2830"
       style="fill:#ffffff;stroke:none" />
    <path
       d="M 241.5,258.875 L 214.65625,542.0625 L 310,473.5 L 293.5625,599.9375 L 263.9375,589.5625 L 299.28125,671.71875 L 358.5625,606 L 328.9375,606 L 379.28125,378.84375 L 265,461.34375 L 295.28125,320.65625 L 288.9375,308.53125 C 276.9855,285.69703 259.95583,269.49145 241.5,258.875 z"
       transform="translate(-285.21429,33.647896)"
       id="path3611"
       style="fill:#009140;fill-opacity:1;stroke:none" />
    <path
       d="M 574,38.34375 L 574,103.34375 L 509,103.34375 L 509,168.34375 L 574,168.34375 L 574,233.34375 L 639,233.34375 L 639,168.34375 L 704,168.34375 L 704,103.34375 L 639,103.34375 L 639,38.34375 L 574,38.34375 z"
       transform="translate(-285.21429,33.647896)"
       id="rect3634"
       style="fill:#ffffff;fill-opacity:1;stroke:none" />
    <g
       id="g2423">
      <path
         d="M -199.84246,825.17762 L -199.84246,894.45786 L -199.84246,963.73811 L -164.16889,963.73811 C -164.16891,963.73811 -139.2591,964.19392 -128.55807,963.73811 C -102.6183,955.14342 -85.139517,935.6193 -81.275692,909.3528 C -78.280323,878.37577 -82.921769,859.20992 -97.904532,842.66978 C -111.04016,828.1688 -122.50397,825.20184 -165.58077,825.17762 L -199.84246,825.17762 z"
         id="path2419"
         style="fill:#ffffff;fill-opacity:1;stroke:none" />
      <path
         d="M 64.744343,825.17762 L 37.918574,825.2402 C 21.067719,870.22617 -0.027880617,918.89122 -16.078092,964.1762 L 10.245675,964.1762 L 24.207625,928.19052 L 75.2864,928.19052 L 89.436601,964.1762 C 99.017995,964.63201 117.10048,964.17617 119.43126,964.1762 L 64.744343,825.17762 z"
         id="path2417"
         style="fill:#ffffff;fill-opacity:1;stroke:none" />
      <path
         d="M 188.42526,825.17762 L 187.98601,894.45786 L 187.484,963.73811 L 237.80977,963.73811 L 288.10417,963.73811 L 288.10417,951.31523 L 288.10417,938.86106 L 251.61485,938.86106 L 215.09415,938.86106 L 215.09415,921.11855 L 215.09415,903.37605 L 248.91658,903.37605 L 282.77039,903.37605 L 282.77039,891.79805 L 282.77039,880.25135 L 248.91658,880.25135 L 215.09415,880.25135 L 215.09415,865.16865 L 215.09415,850.05467 L 251.61485,850.05467 L 288.10417,850.05467 L 288.10417,837.63179 L 288.10417,825.17762 L 238.31178,825.17762 L 188.42526,825.17762 z"
         id="path2415"
         style="fill:#ffffff;fill-opacity:1;stroke:none" />
      <path
         d="M -171.3538,848.30233 L -146.41054,848.30233 C -137.07447,848.80666 -134.08714,847.73589 -124.51067,853.27774 C -110.74918,862.73268 -106.30922,887.66243 -106.43858,893.70686 C -106.72442,907.06415 -110.76679,925.04834 -126.23631,936.88967 C -131.13194,940.18823 -134.39829,940.64468 -151.61882,940.64469 L -171.3538,940.64469 L -171.3538,894.45786 L -171.3538,848.30233 z"
         id="path2413"
         style="fill:#009140;fill-opacity:1;stroke:none" />
      <path
         d="M 51.315771,856.59468 C 51.900232,856.67408 67.547315,904.50612 67.285732,904.69031 C 57.53697,905.10299 42.123238,904.73984 33.431925,904.69031 C 33.388983,904.6258 50.622987,856.5006 51.315771,856.59468 z"
         id="rect3640"
         style="fill:#009140;fill-opacity:1;stroke:none" />
    </g>
  </g>
  <rect
     width="930"
     height="20"
     x="0"
     y="740"
     id="rect2430"
     style="opacity:1;fill:#ffffff;fill-opacity:1;fill-rule:nonzero;stroke:#000000;stroke-width:0;stroke-linecap:round;stroke-linejoin:miter;stroke-miterlimit:4;stroke-dasharray:none;stroke-opacity:1" />
</svg>
